<svg id="Camada_2" data-name="Camada 2" xmlns="http://www.w3.org/2000/svg" width="145.313" height="21.689" viewBox="0 0 145.313 21.689">
  <g id="Camada_1" data-name="Camada 1">
    <path id="Caminho_1" data-name="Caminho 1" d="M10.969,6.4a6.644,6.644,0,0,1,5.706,3.188l3.779-2.115a11.031,11.031,0,0,0-9.485-5.3A10.807,10.807,0,0,0,0,12.806,10.809,10.809,0,0,0,10.969,23.445a11.031,11.031,0,0,0,9.492-5.3l-3.779-2.115a6.642,6.642,0,0,1-5.706,3.187,6.5,6.5,0,0,1-6.6-6.407A6.5,6.5,0,0,1,10.969,6.4Z" transform="translate(0 -1.782)" fill="#e81319"/>
    <path id="Caminho_2" data-name="Caminho 2" d="M465.01,6.4a6.643,6.643,0,0,1,5.706,3.188L474.5,7.473a11.029,11.029,0,0,0-9.485-5.3,10.805,10.805,0,0,0-10.97,10.637,10.809,10.809,0,0,0,10.97,10.639,11.029,11.029,0,0,0,9.49-5.3l-3.779-2.115a6.642,6.642,0,0,1-5.706,3.187,6.5,6.5,0,0,1-6.6-6.407A6.5,6.5,0,0,1,465.01,6.4Z" transform="translate(-373.075 -1.782)" fill="#e81319"/>
    <rect id="Retângulo_1" data-name="Retângulo 1" width="4.301" height="4.171" transform="translate(141.011 17.04)" fill="#e81319"/>
    <path id="Caminho_3" data-name="Caminho 3" d="M130.158,2.84A10.747,10.747,0,0,0,119.25,13.418a10.912,10.912,0,0,0,21.814,0A10.746,10.746,0,0,0,130.158,2.84Zm0,16.949a6.473,6.473,0,0,1-6.569-6.371,6.572,6.572,0,0,1,13.137,0A6.472,6.472,0,0,1,130.158,19.789Z" transform="translate(-97.985 -2.334)" fill="#e81319"/>
    <path id="Caminho_4" data-name="Caminho 4" d="M680.877,21.689H676.82V8.19c0-5.278,3.654-8.19,8.114-8.19,4.5,0,8.146,2.912,8.146,8.19v13.5h-4.051V14.132h-8.151Zm8.151-13.5c0-3.137-1.865-4.636-4.1-4.636s-4.057,1.5-4.057,4.636v2.384h8.151Z" transform="translate(-556.128)" fill="#e81319"/>
    <path id="Caminho_5" data-name="Caminho 5" d="M266.483,4.71V18.845L256.657,4.72V4.71h-.007l-.05-.07v.07h-3.83V25.183h3.887V11.6l9.826,13.585v0h3.385V4.71Z" transform="translate(-207.696 -3.813)" fill="#e81319"/>
    <path id="Caminho_6" data-name="Caminho 6" d="M592.82,3.32H576.19V7.09h6.339v17.3h3.887V7.09h6.4Z" transform="translate(-473.443 -2.728)" fill="#e81319"/>
    <path id="Caminho_7" data-name="Caminho 7" d="M382.162,8.616V4.95H368.254v.014h-.014V25.437h.014v.012h13.907V21.785H372.127v-4.85h9.278V13.6h-9.278V8.616Z" transform="translate(-302.575 -4.067)" fill="#e81319"/>
  </g>
</svg>
